<mxfile host="Electron" modified="2024-05-19T11:53:24.645Z" agent="Mozilla/5.0 (Windows NT 10.0; Win64; x64) AppleWebKit/537.36 (KHTML, like Gecko) draw.io/24.4.0 Chrome/120.0.6099.109 Electron/28.1.0 Safari/537.36" etag="sbayTQ3Y0dhttQ2owqT6" version="24.4.0" type="device">
  <diagram name="Page-1" id="kGlScV-mEJlytIskqW8r">
    <mxGraphModel dx="799" dy="575" grid="1" gridSize="10" guides="1" tooltips="1" connect="1" arrows="1" fold="1" page="1" pageScale="1" pageWidth="850" pageHeight="1100" math="0" shadow="0">
      <root>
        <mxCell id="0" />
        <mxCell id="1" parent="0" />
        <mxCell id="t-YmNeXISK_dyFfR3EKu-15" value="" style="rounded=0;whiteSpace=wrap;html=1;fillColor=#323233;strokeColor=none;" parent="1" vertex="1">
          <mxGeometry x="160" y="240" width="440" height="280" as="geometry" />
        </mxCell>
        <mxCell id="t-YmNeXISK_dyFfR3EKu-1" value="&lt;b&gt;&lt;font style=&quot;font-size: 39px;&quot;&gt;PID 1&lt;/font&gt;&lt;/b&gt;" style="rounded=1;whiteSpace=wrap;html=1;fillColor=#d5e8d4;strokeColor=#82b366;" parent="1" vertex="1">
          <mxGeometry x="320" y="280" width="120" height="60" as="geometry" />
        </mxCell>
        <mxCell id="t-YmNeXISK_dyFfR3EKu-2" value="&lt;b&gt;&lt;font style=&quot;font-size: 16px;&quot;&gt;kernel&lt;/font&gt;&lt;/b&gt;" style="rounded=0;whiteSpace=wrap;html=1;fillColor=#f8cecc;strokeColor=#b85450;" parent="1" vertex="1">
          <mxGeometry x="200" y="360" width="360" height="20" as="geometry" />
        </mxCell>
        <mxCell id="t-YmNeXISK_dyFfR3EKu-3" value="" style="shape=flexArrow;endArrow=classic;html=1;rounded=0;width=15.172413793103448;endSize=7.744827586206897;fillColor=#f5f5f5;strokeColor=#666666;" parent="1" edge="1">
          <mxGeometry width="50" height="50" relative="1" as="geometry">
            <mxPoint x="280" y="480" as="sourcePoint" />
            <mxPoint x="280" y="400" as="targetPoint" />
          </mxGeometry>
        </mxCell>
        <mxCell id="t-YmNeXISK_dyFfR3EKu-7" value="SIGTERM" style="edgeLabel;html=1;align=center;verticalAlign=middle;resizable=0;points=[];rotation=90;fontColor=#FF3333;fontSize=9;fontStyle=1" parent="t-YmNeXISK_dyFfR3EKu-3" vertex="1" connectable="0">
          <mxGeometry x="-0.1845" relative="1" as="geometry">
            <mxPoint as="offset" />
          </mxGeometry>
        </mxCell>
        <mxCell id="t-YmNeXISK_dyFfR3EKu-9" value="" style="shape=flexArrow;endArrow=classic;html=1;rounded=0;width=15.172413793103448;endSize=7.744827586206897;fillColor=#f5f5f5;strokeColor=#666666;" parent="1" edge="1">
          <mxGeometry width="50" height="50" relative="1" as="geometry">
            <mxPoint x="379.71" y="480" as="sourcePoint" />
            <mxPoint x="379.71" y="400" as="targetPoint" />
          </mxGeometry>
        </mxCell>
        <mxCell id="t-YmNeXISK_dyFfR3EKu-10" value="SIGKILL" style="edgeLabel;html=1;align=center;verticalAlign=middle;resizable=0;points=[];rotation=90;fontColor=#FF3333;fontSize=9;fontStyle=1" parent="t-YmNeXISK_dyFfR3EKu-9" vertex="1" connectable="0">
          <mxGeometry x="-0.1845" relative="1" as="geometry">
            <mxPoint as="offset" />
          </mxGeometry>
        </mxCell>
        <mxCell id="t-YmNeXISK_dyFfR3EKu-12" value="" style="shape=flexArrow;endArrow=classic;html=1;rounded=0;width=15.172413793103448;endSize=7.744827586206897;fillColor=#f5f5f5;strokeColor=#666666;" parent="1" edge="1">
          <mxGeometry width="50" height="50" relative="1" as="geometry">
            <mxPoint x="480" y="480" as="sourcePoint" />
            <mxPoint x="480" y="400" as="targetPoint" />
          </mxGeometry>
        </mxCell>
        <mxCell id="t-YmNeXISK_dyFfR3EKu-13" value="SIGSTOP" style="edgeLabel;html=1;align=center;verticalAlign=middle;resizable=0;points=[];rotation=90;fontColor=#FF3333;fontSize=9;fontStyle=1" parent="t-YmNeXISK_dyFfR3EKu-12" vertex="1" connectable="0">
          <mxGeometry x="-0.1845" relative="1" as="geometry">
            <mxPoint as="offset" />
          </mxGeometry>
        </mxCell>
      </root>
    </mxGraphModel>
  </diagram>
</mxfile>
